<svg width="1402" height="131" viewBox="0 0 1402 131" fill="none" xmlns="http://www.w3.org/2000/svg">
<g clip-path="url(#clip0_2404_69)">
<path d="M300.043 72.7617C300.043 96.5818 303.945 104.773 325.048 104.773C346.15 104.773 350.947 96.2099 350.947 71.6461V0H407.054V76.2944C407.054 112.582 374.891 131 324.902 131C283.332 131 251.907 114.814 251.907 77.9678V0H300.033V72.7617H300.043Z" fill="#280205"/>
<path d="M555.551 65.6549C596.82 59.9014 601.252 42.7129 601.252 32.5692C601.252 10.6085 576.893 0 547.299 0H452.182V128.211H508.32V77.9678H511.712L562.2 128.211H618.38L555.551 65.6446V65.6549ZM508.31 51.7513V25.2869H532.7C547.976 25.2869 553.449 31.1541 553.449 38.0233C553.449 45.5535 547.185 51.7513 524.084 51.7513H508.31Z" fill="#280205"/>
<path d="M652.882 0H718.313L771.194 65.7582V0H819.299V128.211H758.333L686.159 40.1305V128.211H652.882V0Z" fill="#280205"/>
<path d="M910.441 0H957.464L1024.03 128.211H968.036L956.08 104.453H890.733L878.767 128.211H846.905L910.441 0ZM923.407 39.8206L903.99 78.3294H942.824L923.407 39.8206Z" fill="#280205"/>
<path d="M0 0H63.7448L105.95 60.2422L139.31 0H206.801V128.211H158.675V40.6883L110.424 128.211H87.1574L33.1523 43.9731V128.211H0V0Z" fill="#280205"/>
<path d="M1262.06 0H1398.31V27.9106H1318.19V49.1276H1382.65V77.0382H1318.19V100.3H1402V128.211H1262.06V0Z" fill="#280205"/>
<path d="M1050.51 0H1115.93L1168.81 65.7582V0H1216.92V128.211H1155.95L1083.66 40.1305V128.211H1050.51V0Z" fill="#280205"/>
</g>
<defs>
<clipPath id="clip0_2404_69">
<rect width="1402" height="131" fill="white"/>
</clipPath>
</defs>
</svg>
