<svg id="Layer_1" xmlns="http://www.w3.org/2000/svg" viewBox="0 0 100 35.7"><style>.st0{fill:#231f20}</style><path class="st0" d="M0 3.2h3.7v30.5H0v2.1h21.6v-2.1h-3.7V12.5c0-4.7 3.6-8.9 6.4-8.9 2.2 0 3 1.7 3 6.1v23.9h-3.7v2.1h21.6v-2.1h-3.7V12c0-4.8 3.2-8.4 6.1-8.4 2.4 0 3.3 1.7 3.3 6.1v23.9h-3.7v2.1h21.6v-2.1h-3.7V23.2h12.1v12.7h10.3V23.2H100V12.8H87.2V0H76.9v12.8h-12V11c0-8.3-6-11.2-11.5-11.2-5.7 0-10.4 2.4-12.7 6.4-2.2-4.1-6.2-6.4-11.1-6.4-5.2 0-9.2 2-11.8 5.9V-.4l-.5.2C14.9 1 9.1 1.1 4.4 1.1H0v2.1z"/></svg>