<?xml version="1.0" encoding="UTF-8"?>
<svg id="Layer_1" data-name="Layer 1" xmlns="http://www.w3.org/2000/svg" viewBox="0 0 1362.39 134.57">
  <defs>
    <style>
      .cls-1 {
        fill: #571e22;
        stroke-width: 0px;
      }
    </style>
  </defs>
  <path class="cls-1" d="M298.07,74.71c0,23.06,3.75,30.99,24.03,30.99s24.89-8.29,24.89-32.07V4.27h53.92v73.86c0,35.13-30.91,52.96-78.95,52.96-39.95,0-70.15-15.67-70.15-51.34V4.27h46.25v70.44Z"/>
  <path class="cls-1" d="M543.61,67.83c39.66-5.57,43.92-22.21,43.92-32.03,0-21.26-23.41-31.53-51.85-31.53h-91.41v124.12h53.95v-48.64h3.26l48.52,48.64h53.99l-60.38-60.57ZM498.22,54.37v-25.62h23.44c14.68,0,19.94,5.68,19.94,12.33,0,7.29-6.02,13.29-28.22,13.29h-15.16Z"/>
  <path class="cls-1" d="M637.15,4.27h62.88l50.82,63.66V4.27h46.23v124.12h-58.59l-69.36-85.27v85.27h-31.98V4.27Z"/>
  <path class="cls-1" d="M884.67,4.27h45.19l63.97,124.12h-53.81l-11.49-23h-62.8l-11.5,23h-30.62l61.04-124.12ZM897.13,42.82l-18.66,37.28h37.32l-18.66-37.28Z"/>
  <g>
    <path class="cls-1" d="M9.72,4.27h61.26l40.56,58.32L143.6,4.27h64.86v124.12h-46.25V43.66l-46.37,84.73h-22.36L41.58,46.84v81.55H9.72V4.27Z"/>
    <path class="cls-1" d="M1222.58,4.27h130.94v27.02h-77v20.54h61.95v27.02h-61.95v22.52h80.55v27.02h-134.49V4.27Z"/>
  </g>
  <path class="cls-1" d="M1019.29,4.27h62.87l50.82,63.66V4.27h46.23v124.12h-58.59l-69.47-85.27v85.27h-31.86V4.27Z"/>
</svg>